<?xml version="1.0" standalone="no"?>
<!DOCTYPE svg PUBLIC "-//W3C//DTD SVG 20010904//EN"
 "http://www.w3.org/TR/2001/REC-SVG-20010904/DTD/svg10.dtd">
<svg version="1.0" xmlns="http://www.w3.org/2000/svg"
 width="1030.000000pt" height="400.000000pt" viewBox="0 0 1030.000000 400.000000"
 preserveAspectRatio="xMidYMid meet">
<metadata>
Created by potrace 1.16, written by Peter Selinger 2001-2019
</metadata>
<g transform="translate(0.000000,400.000000) scale(0.100000,-0.100000)"
fill="#000000" stroke="none">
<path d="M940 3524 c-213 -55 -390 -220 -459 -429 -44 -129 -41 -322 6 -425
29 -62 123 -177 186 -227 56 -43 196 -162 222 -188 101 -98 102 -323 3 -384
-66 -40 -144 -30 -177 23 -16 25 -21 50 -21 104 0 54 -4 75 -19 93 -19 24 -22
24 -198 24 -215 0 -230 -5 -250 -80 -9 -32 -13 -91 -11 -160 3 -103 5 -115 37
-180 62 -126 174 -208 321 -236 91 -17 279 -14 375 6 44 9 117 34 163 55 110
52 229 169 285 280 103 206 113 461 25 638 -39 80 -142 190 -248 267 -203 147
-251 203 -252 293 0 60 20 100 69 141 51 42 112 44 148 5 26 -28 27 -33 29
-131 2 -97 2 -97 215 -101 l179 -3 30 29 c22 21 32 42 37 79 11 81 -17 240
-56 317 -38 73 -155 154 -269 185 -91 25 -283 28 -370 5z"/>
<path d="M2290 3516 c-30 -6 -98 -34 -150 -61 -293 -150 -498 -547 -590 -1141
-54 -353 -6 -590 149 -737 98 -92 172 -119 348 -125 156 -5 238 10 348 65 110
55 190 131 301 285 33 45 138 255 174 348 137 348 149 394 157 580 7 163 -7
282 -48 403 -36 109 -67 163 -135 236 -57 62 -163 124 -247 147 -63 17 -231
17 -307 0z m183 -426 c104 -82 56 -554 -93 -925 -60 -150 -134 -255 -197 -281
-99 -42 -153 15 -153 159 0 176 52 440 147 747 73 239 130 320 222 320 33 0
56 -6 74 -20z"/>
<path d="M3370 3494 c-155 -29 -180 -61 -221 -288 -33 -189 -26 -314 33 -516
27 -93 29 -109 18 -145 -20 -66 -43 -104 -134 -220 -92 -117 -148 -220 -164
-300 -6 -27 -18 -111 -26 -185 -9 -74 -21 -166 -28 -203 -10 -58 -9 -73 5
-102 29 -62 54 -70 207 -70 148 0 184 9 217 54 21 27 53 156 72 286 41 284 42
287 73 344 17 31 38 64 47 75 40 45 152 82 295 95 155 15 178 39 217 230 22
106 18 145 -14 165 -13 8 -67 16 -128 20 -165 10 -195 24 -231 106 -25 57 -27
180 -3 216 13 21 24 24 78 25 34 1 64 1 67 1 3 0 76 -3 162 -7 l157 -8 24 27
c28 30 60 172 61 276 1 64 1 65 -34 82 -23 11 -84 21 -175 28 -150 12 -534 22
-575 14z"/>
<path d="M4395 3470 c-158 -12 -187 -39 -220 -205 -43 -223 -38 -340 23 -515
40 -117 45 -181 17 -244 -9 -22 -60 -103 -114 -180 -53 -78 -104 -152 -112
-166 -47 -74 -86 -242 -120 -512 -14 -113 -8 -137 43 -165 28 -15 56 -18 180
-17 215 3 219 6 257 229 11 60 25 166 31 235 13 148 21 178 67 248 50 76 119
108 272 129 158 21 189 31 222 73 33 41 68 161 69 233 0 34 -5 52 -20 67 -30
30 -54 37 -166 45 -117 8 -166 29 -198 85 -17 29 -21 52 -21 132 0 64 4 101
13 110 20 20 95 24 278 14 187 -9 223 -3 243 41 19 42 53 244 46 279 -11 63
-24 66 -343 80 -312 14 -315 14 -447 4z"/>
<path d="M5295 3442 c-39 -6 -65 -26 -74 -56 -8 -29 -5 -70 18 -231 5 -38 17
-119 25 -180 33 -238 15 -315 -142 -600 -88 -161 -112 -257 -107 -435 5 -201
39 -374 83 -422 40 -43 83 -53 232 -53 117 0 140 3 170 20 48 28 61 59 125
295 31 113 65 232 76 265 34 99 122 266 195 370 38 53 84 119 101 146 32 48
53 67 35 32 -5 -10 -18 -36 -28 -58 -10 -22 -20 -42 -23 -45 -4 -3 -14 -21
-25 -40 -61 -113 -91 -184 -113 -269 -23 -90 -24 -107 -19 -281 8 -283 32
-365 121 -410 45 -22 62 -25 165 -25 185 0 240 29 273 142 37 129 67 244 91
354 29 129 43 175 76 238 18 36 214 327 270 401 11 14 41 68 69 120 38 74 53
118 69 200 23 119 48 424 38 463 -11 44 -51 57 -177 57 -135 0 -178 -11 -206
-53 -30 -44 -52 -179 -59 -349 -3 -78 -10 -172 -15 -208 -11 -67 -58 -173
-110 -244 -70 -97 -160 -236 -180 -277 -19 -41 -20 -42 -15 -11 3 18 29 81 57
140 28 59 64 148 81 197 30 89 30 91 25 250 -4 88 -13 201 -21 250 -39 236
-44 257 -68 282 -24 23 -29 24 -170 24 -154 -1 -181 -6 -212 -39 -19 -22 -44
-129 -65 -277 -38 -270 -38 -270 -82 -361 -57 -114 -62 -124 -71 -124 -5 0 -8
-6 -8 -14 0 -8 -3 -16 -8 -18 -14 -6 -150 -203 -192 -278 -68 -124 -34 -38 66
165 106 213 124 275 124 425 0 52 -11 180 -25 285 -33 250 -24 240 -213 240
-75 0 -146 -1 -157 -3z"/>
<path d="M7254 3426 c-59 -27 -70 -53 -149 -361 -84 -328 -131 -459 -197 -550
-20 -27 -56 -81 -79 -120 -23 -38 -54 -90 -69 -115 -28 -46 -63 -138 -119
-310 -17 -52 -53 -160 -81 -240 -27 -80 -50 -153 -50 -163 0 -10 11 -29 25
-42 23 -24 28 -25 176 -25 164 0 221 10 238 44 6 11 33 88 61 169 28 82 57
162 65 178 l16 29 132 0 c72 0 138 -4 144 -8 10 -6 13 -52 12 -178 -2 -187 3
-206 55 -224 16 -5 98 -10 182 -10 147 0 154 1 181 24 l28 24 -1 789 c-1 651
-3 810 -16 917 -14 114 -19 132 -42 155 l-26 26 -228 3 c-178 2 -234 -1 -258
-12z m193 -603 c-4 -38 -11 -149 -17 -248 -12 -220 -16 -242 -40 -255 -40 -22
-197 -8 -162 14 5 3 17 27 27 53 10 26 25 66 35 88 20 47 75 192 122 322 18
51 35 93 37 93 2 0 1 -30 -2 -67z"/>
<path d="M8245 3428 c-51 -7 -73 -21 -86 -55 -5 -13 -27 -135 -49 -271 -75
-459 -223 -1337 -232 -1382 -5 -25 -12 -75 -15 -111 -5 -63 -4 -67 22 -87 26
-20 39 -22 176 -22 81 0 159 4 173 10 49 18 58 54 141 537 19 112 35 208 35
214 0 8 23 10 71 7 86 -5 103 -20 113 -102 8 -62 3 -123 -25 -288 -27 -166
-33 -256 -20 -304 17 -63 49 -74 206 -74 188 0 224 25 211 147 -6 58 -2 89 44
338 29 158 25 266 -13 349 -15 32 -36 67 -47 76 -25 22 -25 37 -1 45 31 10
135 127 161 181 53 111 62 147 67 259 12 257 -90 431 -295 508 -51 19 -84 22
-324 26 -146 4 -287 3 -313 -1z m432 -384 c37 -23 54 -59 60 -123 10 -105 -34
-202 -110 -243 -33 -18 -142 -25 -151 -10 -3 5 2 40 10 78 7 38 14 82 14 98 0
17 7 59 16 95 8 36 17 76 20 89 2 13 15 27 27 31 28 11 85 3 114 -15z"/>
<path d="M9368 3424 c-9 -3 -26 -20 -36 -37 -21 -34 -23 -46 -47 -233 -34
-265 -106 -697 -191 -1134 -83 -430 -82 -426 -76 -455 2 -13 13 -32 24 -42 18
-17 49 -18 391 -21 273 -2 379 0 400 9 37 16 48 42 86 208 33 143 31 164 -13
181 -13 5 -109 6 -215 3 -111 -4 -191 -2 -191 3 0 5 14 77 30 159 17 83 33
168 38 190 l7 40 170 5 c94 3 178 9 187 13 46 23 94 316 57 352 -25 26 -84 35
-226 35 l-132 0 6 33 c2 17 15 86 27 152 l21 120 182 5 c178 5 183 6 207 30
18 19 27 43 35 95 6 39 15 101 22 139 13 79 5 105 -38 133 -25 16 -58 18 -368
20 -187 1 -348 -1 -357 -3z"/>
<path d="M4781 1079 c-148 -45 -211 -195 -190 -452 18 -212 109 -305 288 -295
113 7 163 38 211 132 l35 69 0 151 c0 161 -3 189 -29 250 -42 100 -109 147
-216 152 -36 2 -80 -1 -99 -7z m147 -135 c45 -29 57 -76 57 -224 0 -199 -34
-270 -129 -270 -83 0 -117 62 -122 220 -3 111 8 196 32 243 28 54 105 68 162
31z"/>
<path d="M3735 1068 c-3 -7 -4 -33 -3 -58 3 -39 6 -46 28 -50 l25 -5 3 -253 2
-252 -30 0 c-30 0 -30 0 -30 -55 l0 -55 183 0 c202 0 242 7 293 52 92 81 96
199 9 285 l-42 43 38 40 c101 106 40 275 -111 309 -67 16 -359 14 -365 -1z
m353 -140 c30 -33 36 -70 18 -106 -20 -38 -60 -54 -127 -50 l-54 3 -3 88 -3
87 74 0 c63 0 76 -3 95 -22z m-9 -292 c50 -26 67 -101 31 -144 -21 -25 -67
-42 -117 -42 -61 0 -63 3 -63 106 l0 94 60 0 c34 0 73 -6 89 -14z"/>
<path d="M5413 1053 c8 -16 59 -120 115 -232 l102 -204 0 -133 0 -134 80 0 80
0 0 137 0 136 115 229 114 229 -81 -3 -82 -3 -59 -135 c-32 -74 -63 -148 -69
-164 l-11 -29 -29 59 c-16 32 -46 97 -65 144 -58 135 -52 130 -144 130 l-80 0
14 -27z"/>
<path d="M6349 1060 c-1 -11 -2 -37 -3 -57 l-1 -38 168 -3 c92 -1 167 -5 167
-7 0 -3 -35 -49 -77 -102 -93 -114 -161 -203 -225 -291 -47 -64 -48 -68 -48
-136 l0 -71 255 3 255 3 0 64 0 65 -181 0 -180 0 33 46 c18 26 62 81 98 124
36 43 102 126 148 185 l82 107 0 64 0 64 -245 0 c-238 0 -245 -1 -246 -20z"/>
</g>
</svg>
